<?xml version="1.0" encoding="UTF-8"?>
<!DOCTYPE svg PUBLIC "-//W3C//DTD SVG 1.1//EN" "http://www.w3.org/Graphics/SVG/1.1/DTD/svg11.dtd">
<svg version="1.1" xmlns="http://www.w3.org/2000/svg" xmlns:xlink="http://www.w3.org/1999/xlink" x="0" y="0" width="248" height="96" viewBox="0, 0, 248, 96">
  <defs>
    <clipPath id="Clip_1">
      <path d="M0.06,0.001 L247.188,0.001 L247.188,95.94 L0.06,95.94 z"/>
    </clipPath>
    <clipPath id="Clip_2">
      <path d="M0.06,0.001 L247.188,0.001 L247.188,95.94 L0.06,95.94 z"/>
    </clipPath>
  </defs>
  <g id="Layer_1">
    <g clip-path="url(#Clip_1)">
      <path d="M4.465,70.45 C4.465,77.479 6.159,82.75 9.55,86.264 C12.94,89.779 17.818,91.535 24.186,91.535 C30.552,91.535 35.451,89.779 38.883,86.264 C42.313,82.75 44.031,77.479 44.031,70.45 L44.031,30.14 C44.031,23.113 42.313,17.842 38.883,14.326 C35.451,10.812 30.552,9.055 24.186,9.055 C17.818,9.055 12.94,10.812 9.55,14.326 C6.159,17.842 4.465,23.113 4.465,30.14 L4.465,70.45 z M0,70.45 L0,30.14 C0,21.293 2.19,14.822 6.574,10.729 C10.956,6.637 16.826,4.59 24.186,4.59 C31.544,4.59 37.436,6.637 41.86,10.729 C46.283,14.822 48.496,21.293 48.496,30.14 L48.496,70.45 C48.496,79.299 46.283,85.768 41.86,89.86 C37.436,93.953 31.544,96 24.186,96 C16.826,96 10.956,93.953 6.574,89.86 C2.19,85.768 0,79.299 0,70.45" fill="#299ECD"/>
      <path d="M72.682,52.838 L92.402,52.838 C98.769,52.838 103.667,51.061 107.1,47.504 C110.53,43.95 112.247,38.657 112.247,31.629 L112.247,30.14 C112.247,23.113 110.53,17.842 107.1,14.326 C103.667,10.812 98.769,9.055 92.402,9.055 L72.682,9.055 L72.682,52.838 z M68.216,93.023 L68.216,6.698 C68.216,5.458 68.96,4.757 70.449,4.59 L92.402,4.59 C99.761,4.59 105.652,6.637 110.077,10.729 C114.499,14.822 116.712,21.293 116.712,30.14 L116.712,31.629 C116.712,40.478 114.499,46.968 110.077,51.102 C105.652,55.236 99.761,57.303 92.402,57.303 L72.682,57.303 L72.682,93.023 C72.682,94.512 71.937,95.256 70.449,95.256 C68.96,95.256 68.216,94.512 68.216,93.023" fill="#299ECD"/>
      <path d="M127.377,79.628 C127.377,83.597 128.556,86.595 130.912,88.62 C133.269,90.647 136.348,91.659 140.152,91.659 C144.618,91.659 148.854,90.089 152.866,86.946 C156.876,83.805 158.881,80.828 158.881,78.016 L158.881,67.597 L152.06,67.597 C148.339,67.597 145.216,67.721 142.695,67.97 C140.172,68.218 137.629,68.734 135.067,69.52 C132.503,70.307 130.581,71.547 129.3,73.24 C128.017,74.936 127.377,77.066 127.377,79.628 z M123.036,79.628 C123.036,73.427 125.496,69.148 130.416,66.791 C135.335,64.435 142.509,63.256 151.936,63.256 L158.881,63.256 L158.881,59.783 C158.881,54.492 157.517,49.923 154.788,46.078 C152.06,42.233 147.966,40.311 142.509,40.311 C140.276,40.311 138.188,40.58 136.246,41.117 C134.302,41.655 132.792,42.214 131.718,42.791 C130.643,43.37 129.939,43.659 129.61,43.659 C128.947,43.659 128.41,43.37 127.998,42.791 C127.583,42.214 127.377,41.675 127.377,41.179 C127.377,39.938 129.009,38.76 132.276,37.644 C135.542,36.527 139.036,35.97 142.757,35.97 C149.868,35.97 155.056,38.224 158.323,42.729 C161.589,47.237 163.222,52.921 163.222,59.783 L163.222,93.023 C163.222,94.512 162.519,95.256 161.114,95.256 C160.45,95.256 159.914,95.051 159.501,94.636 C159.087,94.223 158.881,93.687 158.881,93.023 L158.881,86.574 C153.424,92.858 147.222,96 140.276,96 C135.148,96 130.994,94.616 127.812,91.845 C124.627,89.075 123.036,85.004 123.036,79.628" fill="#299ECD"/>
    </g>
    <path d="M179.593,93.023 L179.593,38.822 C179.593,37.417 180.294,36.714 181.701,36.714 C183.189,36.714 183.934,37.417 183.934,38.822 L183.934,45.396 C187.655,39.113 193.401,35.97 201.174,35.97 L205.763,35.97 C206.341,35.97 206.837,36.198 207.251,36.651 C207.664,37.107 207.872,37.624 207.872,38.202 C207.872,38.781 207.664,39.277 207.251,39.69 C206.837,40.105 206.341,40.311 205.763,40.311 L201.174,40.311 C196.542,40.311 192.511,41.966 189.081,45.271 C185.649,48.58 183.934,52.921 183.934,58.295 L183.934,93.023 C183.934,93.603 183.705,94.12 183.251,94.573 C182.796,95.029 182.278,95.256 181.701,95.256 C181.122,95.256 180.626,95.029 180.213,94.573 C179.798,94.12 179.593,93.603 179.593,93.023" fill="#299ECD"/>
    <g clip-path="url(#Clip_2)">
      <path d="M218.91,93.023 L218.91,2.109 C218.91,0.704 219.612,0.001 221.019,0.001 C222.507,0.001 223.251,0.704 223.251,2.109 L223.251,93.023 C223.251,93.603 223.022,94.12 222.569,94.573 C222.114,95.029 221.597,95.256 221.019,95.256 C220.439,95.256 219.943,95.029 219.53,94.573 C219.116,94.12 218.91,93.603 218.91,93.023" fill="#299ECD"/>
      <path d="M239.685,94.825 C238.817,94.043 238.383,93.089 238.383,91.969 C238.383,90.849 238.796,89.897 239.623,89.114 C240.448,88.331 241.524,87.939 242.848,87.939 C244.005,87.939 245.019,88.331 245.886,89.114 C246.755,89.897 247.188,90.849 247.188,91.969 C247.188,93.016 246.755,93.947 245.886,94.77 C245.019,95.589 244.005,96 242.848,96 C241.607,96 240.554,95.606 239.685,94.825" fill="#299ECD"/>
    </g>
  </g>
</svg>
